# xmcd
#
# Track frame offsets:
#	150
#	22532
#	38557
#	54467
#	69352
#	87690
#	106555
#	124950
#	142155
#	161105
#	176775
#	193115
#	210417
#	227907
#	245522
#	262672
#
# Disc length: 3855 seconds
#
# Revision: 6
# Processed by: cddbd v1.5.2PL0 Copyright (c) Steve Scherf et al.
# Submitted via: EZCDAudioConverter 2.4.0.1
#
DISCID=d70f0d10
DTITLE=(Sertanejo) Tributo a Leandro
DYEAR=2001
DGENRE=Sertanejo
TTITLE0=Leandro - Catedral (Cathedral Song) (Ao Vivo)
TTITLE1=Zezé Di Camargo and Luciano - Pense em Mim
TTITLE2=Roberta Miranda - Cadê Você
TTITLE3=Daniel - Mexe Mexe
TTITLE4=Gian and Giovani - Festa de Rodeio
TTITLE5=Cleiton and Camargo - Doce Mistério
TTITLE6=Amado Batista - Eu Juro (I Swear)
TTITLE7=Chitãozinho and  Xororó - Não Aprendi Dizer Adeus
TTITLE8=Sérgio Reis - Rumo a Goiânia
TTITLE9=Réne and Ronaldo - Anarriê
TTITLE10=Rick and Renner - Bobo
TTITLE11=Fábio Jr. - Desculpe mas eu vou chorar
TTITLE12=Chrystian and Ralph - Temporal de Amor
TTITLE13=Adalberto and Adriano - Não Olhe Assim
TTITLE14=Carlos and Alessandro - Entre Tapas e Beijos
TTITLE15=Leonardo - Canção do 3º Milenio
EXTD=
EXTT0=
EXTT1=
EXTT2=
EXTT3=
EXTT4=
EXTT5=
EXTT6=
EXTT7=
EXTT8=
EXTT9=
EXTT10=
EXTT11=
EXTT12=
EXTT13=
EXTT14=
EXTT15=
PLAYORDER=
